<?xml version="1.0" standalone="no"?>
<!DOCTYPE svg PUBLIC "-//W3C//DTD SVG 20010904//EN"
 "http://www.w3.org/TR/2001/REC-SVG-20010904/DTD/svg10.dtd">
<svg version="1.0" xmlns="http://www.w3.org/2000/svg"
 width="500.000000pt" height="500.000000pt" viewBox="0 0 500.000000 500.000000"
 preserveAspectRatio="xMidYMid meet">
<metadata>
Created by potrace 1.11, written by Peter Selinger 2001-2013
</metadata>
<g transform="translate(0.000000,500.000000) scale(0.100000,-0.100000)"
fill="#000000" stroke="none">
<path d="M929 4991 c-8 -73 -3 -93 29 -97 7 -2 32 -11 55 -22 60 -29 85 -63
94 -127 2 -16 5 -806 5 -1755 l1 -1725 -22 -47 c-19 -39 -32 -51 -79 -73 -31
-15 -64 -30 -72 -34 -9 -5 -14 -23 -15 -52 l0 -44 418 0 c229 0 417 2 418 5 0
3 2 24 3 48 2 41 1 43 -34 52 -45 12 -97 46 -121 80 -10 14 -22 50 -27 80 -4
30 -7 818 -7 1750 1 1295 4 1705 14 1737 6 24 22 53 34 65 20 21 82 61 89 58
2 -1 14 3 28 8 22 8 25 15 24 48 -1 22 -3 42 -3 45 -1 8 -831 9 -832 0z"/>
<path d="M2828 4585 c-1 -1 -53 -6 -113 -9 -61 -3 -119 -8 -130 -10 -11 -2
-42 -7 -70 -10 -27 -4 -57 -9 -65 -11 -8 -2 -28 -7 -45 -10 -56 -9 -78 -14
-129 -29 -28 -8 -62 -17 -76 -20 -69 -13 -268 -90 -407 -157 -84 -40 -115 -63
-45 -33 63 26 185 66 275 90 4 1 8 2 10 3 20 17 359 14 477 -3 121 -17 138
-20 160 -28 8 -3 35 -11 59 -18 25 -6 55 -19 68 -27 13 -8 23 -12 23 -9 0 18
157 -88 205 -139 24 -25 80 -98 81 -105 0 -5 40 -91 56 -123 5 -11 7 -21 4
-24 -2 -3 0 -16 5 -30 14 -37 20 -97 21 -193 1 -213 -55 -369 -176 -492 -37
-37 -75 -70 -86 -73 -11 -4 -20 -11 -20 -16 0 -6 -4 -8 -9 -5 -5 3 -14 -1 -21
-9 -7 -8 -16 -15 -20 -15 -4 0 -25 -8 -46 -17 -22 -9 -41 -17 -44 -18 -3 -1
-12 -4 -20 -8 -48 -19 -161 -41 -280 -53 -37 -3 -508 -13 -696 -14 l-51 0 0
-189 0 -190 116 0 c64 0 131 0 149 -1 21 0 32 -5 32 -14 0 -8 6 -21 13 -28 11
-11 68 -99 132 -204 83 -135 110 -178 119 -188 6 -6 20 -28 31 -48 11 -21 23
-38 28 -38 4 0 6 -4 3 -9 -4 -5 -2 -11 2 -13 5 -1 26 -32 48 -68 21 -36 42
-69 47 -75 4 -5 22 -32 39 -60 74 -117 98 -155 152 -238 31 -48 56 -90 56 -93
0 -3 5 -10 10 -17 19 -22 130 -198 130 -206 0 -4 9 -16 20 -26 11 -10 20 -22
20 -27 0 -5 18 -35 39 -67 72 -105 112 -190 101 -212 -12 -21 -55 -46 -93 -53
-41 -7 -45 -13 -42 -63 3 -59 1 -56 26 -43 14 8 24 8 32 1 8 -6 18 -6 27 -1 9
5 19 5 27 -1 8 -7 18 -7 32 0 11 6 28 8 37 4 15 -6 69 -8 77 -3 10 7 38 6 43
-1 3 -5 12 -5 23 1 12 6 22 5 28 -1 8 -8 17 -8 31 0 11 6 29 8 38 4 15 -6 69
-8 77 -3 10 7 38 6 43 -1 3 -5 12 -5 23 1 12 6 22 5 28 -1 7 -7 18 -8 29 -2
11 5 30 8 44 6 30 -4 72 -5 85 -3 46 10 45 -13 -2 -41 -21 -13 -40 -26 -43
-29 -6 -7 -119 -71 -197 -111 -29 -15 -55 -24 -58 -21 -3 3 -5 0 -5 -6 0 -7
-3 -11 -7 -11 -5 1 -21 -3 -38 -10 -16 -6 -34 -11 -39 -10 -5 0 -12 -3 -15 -8
-3 -4 -31 -16 -61 -26 -30 -11 -62 -21 -70 -25 -8 -3 -22 -6 -30 -6 -8 -1 -19
-4 -25 -7 -5 -4 -23 -10 -40 -13 -49 -10 -74 -16 -97 -21 -181 -41 -473 -49
-683 -20 -89 13 -113 17 -139 26 -16 5 -42 9 -57 9 -15 0 -30 4 -33 9 -3 4
-20 11 -38 14 -43 7 -270 92 -303 113 -14 9 -25 13 -25 9 0 -4 -6 -3 -12 2 -7
6 -40 25 -73 43 -118 64 -273 173 -358 250 -37 34 -105 71 -92 51 5 -10 -14
-9 -77 4 -10 2 -18 0 -18 -5 0 -8 -56 -4 -71 5 -5 4 -9 1 -9 -5 0 -6 -8 -4
-17 6 -14 13 -18 36 -19 96 -1 71 1 81 21 96 21 16 21 18 6 42 -8 14 -18 27
-21 30 -24 21 -139 211 -188 312 -116 235 -177 452 -198 698 -10 113 -5 460 6
460 3 0 7 17 8 38 4 52 56 263 86 347 92 258 240 509 407 688 51 53 59 68 59
102 1 45 1 381 1 464 -1 52 -2 54 -18 38 -10 -9 -47 -40 -83 -69 -122 -98
-323 -307 -405 -422 -11 -16 -29 -40 -41 -55 -12 -14 -29 -41 -38 -58 -9 -18
-20 -33 -24 -33 -4 0 -12 -10 -18 -23 -30 -60 -88 -163 -97 -168 -5 -3 -8 -9
-8 -13 1 -3 -13 -36 -30 -73 -17 -38 -35 -77 -40 -88 -5 -11 -24 -60 -42 -110
-29 -78 -40 -110 -53 -160 -1 -5 -9 -37 -18 -70 -9 -33 -19 -71 -21 -85 -3
-14 -7 -35 -10 -47 -3 -13 -7 -31 -9 -41 -2 -11 -8 -43 -11 -73 -4 -30 -10
-70 -13 -89 -8 -63 -7 -494 2 -560 5 -36 10 -74 12 -85 1 -11 3 -20 4 -20 1 0
3 -15 6 -34 11 -85 65 -288 109 -408 41 -111 193 -423 206 -423 5 0 9 -5 9
-10 0 -10 96 -158 109 -170 3 -3 20 -23 36 -45 127 -170 348 -382 530 -506 28
-19 52 -36 55 -39 14 -15 188 -113 280 -158 158 -76 378 -155 490 -176 14 -2
32 -7 40 -10 16 -5 60 -13 120 -22 19 -3 46 -7 60 -11 47 -11 85 -13 310 -17
124 -3 252 -1 285 4 33 5 83 11 110 15 28 4 59 9 70 10 42 7 211 47 260 62 91
28 130 41 165 56 63 25 75 30 85 32 18 4 187 88 250 123 61 35 216 132 225
142 3 3 30 24 60 46 121 90 327 290 421 409 73 91 169 230 169 243 0 6 3 12 8
14 18 8 145 257 195 383 44 112 99 295 111 370 2 11 7 36 11 55 13 66 20 109
32 200 10 79 10 433 0 510 -12 95 -29 192 -44 260 -7 36 -16 74 -18 85 -30
135 -133 372 -189 434 -9 10 -16 21 -16 25 0 9 -138 203 -179 252 -14 18 -37
47 -51 65 -56 76 -358 365 -394 378 -6 2 -13 7 -16 11 -21 28 -229 155 -335
205 -158 73 -286 118 -395 138 -14 3 -36 8 -50 11 -28 6 -80 15 -125 21 -16 2
-79 7 -140 10 -60 4 -115 8 -122 10 -6 2 -13 2 -15 0z m762 -466 c0 -5 6 -9
14 -9 8 0 16 -3 18 -7 2 -5 28 -25 58 -46 30 -21 78 -56 105 -79 56 -47 245
-233 245 -241 0 -3 14 -21 31 -39 24 -27 116 -158 177 -253 42 -67 166 -343
177 -395 2 -8 4 -15 5 -15 2 0 6 -16 14 -50 2 -11 5 -21 5 -22 1 -2 1 -4 0 -5
0 -2 4 -15 9 -29 6 -14 13 -41 16 -60 3 -19 8 -44 11 -56 11 -50 13 -60 20
-123 3 -36 9 -78 11 -94 11 -70 3 -361 -12 -440 -2 -11 -6 -38 -9 -61 -4 -22
-13 -69 -21 -105 -9 -36 -17 -74 -20 -85 -2 -12 -13 -48 -24 -80 -11 -33 -22
-67 -24 -75 -7 -28 -88 -211 -112 -253 -13 -23 -30 -55 -38 -72 -8 -16 -28
-49 -45 -72 -17 -24 -31 -45 -31 -48 0 -8 -96 -132 -159 -204 -47 -55 -101
-109 -190 -191 -26 -25 -87 -16 -171 24 -58 27 -72 43 -182 214 -51 78 -126
192 -165 253 -40 62 -73 115 -73 119 0 4 -7 13 -15 20 -8 7 -21 24 -28 39 -11
21 -195 308 -237 371 -18 26 -72 110 -184 285 -61 94 -137 213 -171 265 -34
52 -64 100 -67 105 -4 6 5 11 20 12 33 1 117 10 117 13 0 1 14 3 30 5 48 6
115 22 190 45 39 11 76 22 83 22 6 1 12 5 12 10 0 5 5 6 10 3 6 -3 10 -1 10 6
0 7 3 10 6 6 12 -12 208 97 281 157 48 38 153 149 177 187 17 24 35 49 41 54
22 21 98 197 110 255 2 8 8 33 13 55 29 112 33 344 7 465 -3 14 -8 38 -10 53
-6 32 -43 143 -57 169 -6 14 -5 16 7 12 8 -4 15 -10 15 -15z"/>
</g>
</svg>
